<?xml version="1.0" encoding="utf-8"?>
<!-- Generator: Adobe Illustrator 27.0.0, SVG Export Plug-In . SVG Version: 6.00 Build 0)  -->
<svg version="1.1" id="Layer_1" xmlns="http://www.w3.org/2000/svg" xmlns:xlink="http://www.w3.org/1999/xlink" x="0px" y="0px"
	 viewBox="0 0 106.9 138.3" style="enable-background:new 0 0 106.9 138.3;" xml:space="preserve">
<style type="text/css">
	.st0{fill:#FFD700;}
	.st1{fill:#A07C24;}
	.st2{fill:#FFF278;}
	.st3{fill:#A0285F;}
	.st4{fill:#E51565;}
	.st5{fill:#FF5F8D;}
	.st6{fill:#A5A5A5;}
	.st7{fill:#686868;}
	.st8{fill:#D17507;}
	.st9{fill:#9E5220;}
	.st10{fill:#773917;}
	.st11{fill:#728189;}
	.st12{fill:#CBD9E6;}
	.st13{fill:#897030;}
	.st14{fill:#D8BF52;}
	.st15{fill:#3D7F3D;}
	.st16{fill:#62D362;}
	.st17{fill:#59AD59;}
	.st18{fill:#85FA85;}
	.st19{fill:#D0FFCC;}
	.st20{fill:#DD52D6;}
	.st21{fill:#8F4193;}
	.st22{fill:#F973F9;}
	.st23{fill:#6ACED3;}
	.st24{fill:#B9F2FF;}
	.st25{fill:#487C7A;}
	.st26{fill:#DCFDFF;}
	.st27{fill:#AB7EF2;}
	.st28{fill:#BEA0F9;}
	.st29{fill:#7E59D8;}
	.st30{fill:#2FCFC2;}
	.st31{fill:#277270;}
	.st32{fill:#24DDD8;}
	.st33{fill:#FFFFFF;}
	.st34{fill:#E2E2E2;}
	.st35{fill:#7C7C7C;}
	.st36{fill:#83949B;}
	.st37{fill:#A5853F;}
	.st38{fill:#30827E;}
	.st39{fill:#20A59E;}
	.st40{fill:#73FFF8;}
</style>
<g>
	<g>
		<g>
			<g>
				<polygon class="st20" points="46.9,13.4 46.9,16.8 48.8,18.7 48.8,39.5 58.1,39.5 58.1,5.5 				"/>
			</g>
			<polygon class="st20" points="44.8,132.8 44.8,39 62,39 62,114.9 62,114.9 62,115.6 			"/>
			<rect x="37.7" y="38.6" class="st20" width="31.5" height="5.1"/>
		</g>
		<polygon class="st21" points="35.6,53.3 0,39.5 11.2,62.2 35.6,82.1 		"/>
		<polygon class="st21" points="35.6,105.1 35.6,82.1 18.3,82.1 		"/>
		<polygon class="st21" points="71.3,53.3 106.9,39.5 95.7,62.2 71.3,82.1 		"/>
		<polygon class="st21" points="71.3,105.1 71.3,82.1 88.5,82.1 		"/>
	</g>
	<polygon class="st22" points="44.8,43.7 53.4,43.7 53.4,124.2 44.8,132.8 	"/>
</g>
</svg>
